<?xml version="1.0" encoding="utf-8" standalone="no"?>
<!DOCTYPE svg PUBLIC "-//W3C//DTD SVG 1.1//EN"
  "http://www.w3.org/Graphics/SVG/1.1/DTD/svg11.dtd">
<svg xmlns:xlink="http://www.w3.org/1999/xlink" width="720pt" height="504pt" viewBox="0 0 720 504" xmlns="http://www.w3.org/2000/svg" version="1.1">
 <metadata>
  <rdf:RDF xmlns:dc="http://purl.org/dc/elements/1.1/" xmlns:cc="http://creativecommons.org/ns#" xmlns:rdf="http://www.w3.org/1999/02/22-rdf-syntax-ns#">
   <cc:Work>
    <dc:type rdf:resource="http://purl.org/dc/dcmitype/StillImage"/>
    <dc:date>2024-04-27T19:37:54.508326</dc:date>
    <dc:format>image/svg+xml</dc:format>
    <dc:creator>
     <cc:Agent>
      <dc:title>Matplotlib v3.8.4, https://matplotlib.org/</dc:title>
     </cc:Agent>
    </dc:creator>
   </cc:Work>
  </rdf:RDF>
 </metadata>
 <defs>
  <style type="text/css">*{stroke-linejoin: round; stroke-linecap: butt}</style>
 </defs>
 <g id="figure_1">
  <g id="patch_1">
   <path d="M 0 504 
L 720 504 
L 720 0 
L 0 0 
z
" style="fill: #ffffff"/>
  </g>
  <g id="axes_1">
   <g id="patch_2">
    <path d="M 90 448.56 
L 648 448.56 
L 648 60.48 
L 90 60.48 
z
" style="fill: #ffffff"/>
   </g>
   <g id="matplotlib.axis_1">
    <g id="xtick_1">
     <g id="line2d_1">
      <defs>
       <path id="m8a6f51b0fa" d="M 0 0 
L 0 3.5 
" style="stroke: #000000; stroke-width: 0.8"/>
      </defs>
      <g>
       <use xlink:href="#m8a6f51b0fa" x="102.356643" y="448.56" style="stroke: #000000; stroke-width: 0.8"/>
      </g>
     </g>
     <g id="text_1">
      <!-- 0.00 -->
      <g transform="translate(91.223831 463.158437) scale(0.1 -0.1)">
       <defs>
        <path id="DejaVuSans-30" d="M 2034 4250 
Q 1547 4250 1301 3770 
Q 1056 3291 1056 2328 
Q 1056 1369 1301 889 
Q 1547 409 2034 409 
Q 2525 409 2770 889 
Q 3016 1369 3016 2328 
Q 3016 3291 2770 3770 
Q 2525 4250 2034 4250 
z
M 2034 4750 
Q 2819 4750 3233 4129 
Q 3647 3509 3647 2328 
Q 3647 1150 3233 529 
Q 2819 -91 2034 -91 
Q 1250 -91 836 529 
Q 422 1150 422 2328 
Q 422 3509 836 4129 
Q 1250 4750 2034 4750 
z
" transform="scale(0.015625)"/>
        <path id="DejaVuSans-2e" d="M 684 794 
L 1344 794 
L 1344 0 
L 684 0 
L 684 794 
z
" transform="scale(0.015625)"/>
       </defs>
       <use xlink:href="#DejaVuSans-30"/>
       <use xlink:href="#DejaVuSans-2e" x="63.623047"/>
       <use xlink:href="#DejaVuSans-30" x="95.410156"/>
       <use xlink:href="#DejaVuSans-30" x="159.033203"/>
      </g>
     </g>
    </g>
    <g id="xtick_2">
     <g id="line2d_2">
      <g>
       <use xlink:href="#m8a6f51b0fa" x="167.391608" y="448.56" style="stroke: #000000; stroke-width: 0.8"/>
      </g>
     </g>
     <g id="text_2">
      <!-- 0.25 -->
      <g transform="translate(156.258796 463.158437) scale(0.1 -0.1)">
       <defs>
        <path id="DejaVuSans-32" d="M 1228 531 
L 3431 531 
L 3431 0 
L 469 0 
L 469 531 
Q 828 903 1448 1529 
Q 2069 2156 2228 2338 
Q 2531 2678 2651 2914 
Q 2772 3150 2772 3378 
Q 2772 3750 2511 3984 
Q 2250 4219 1831 4219 
Q 1534 4219 1204 4116 
Q 875 4013 500 3803 
L 500 4441 
Q 881 4594 1212 4672 
Q 1544 4750 1819 4750 
Q 2544 4750 2975 4387 
Q 3406 4025 3406 3419 
Q 3406 3131 3298 2873 
Q 3191 2616 2906 2266 
Q 2828 2175 2409 1742 
Q 1991 1309 1228 531 
z
" transform="scale(0.015625)"/>
        <path id="DejaVuSans-35" d="M 691 4666 
L 3169 4666 
L 3169 4134 
L 1269 4134 
L 1269 2991 
Q 1406 3038 1543 3061 
Q 1681 3084 1819 3084 
Q 2600 3084 3056 2656 
Q 3513 2228 3513 1497 
Q 3513 744 3044 326 
Q 2575 -91 1722 -91 
Q 1428 -91 1123 -41 
Q 819 9 494 109 
L 494 744 
Q 775 591 1075 516 
Q 1375 441 1709 441 
Q 2250 441 2565 725 
Q 2881 1009 2881 1497 
Q 2881 1984 2565 2268 
Q 2250 2553 1709 2553 
Q 1456 2553 1204 2497 
Q 953 2441 691 2322 
L 691 4666 
z
" transform="scale(0.015625)"/>
       </defs>
       <use xlink:href="#DejaVuSans-30"/>
       <use xlink:href="#DejaVuSans-2e" x="63.623047"/>
       <use xlink:href="#DejaVuSans-32" x="95.410156"/>
       <use xlink:href="#DejaVuSans-35" x="159.033203"/>
      </g>
     </g>
    </g>
    <g id="xtick_3">
     <g id="line2d_3">
      <g>
       <use xlink:href="#m8a6f51b0fa" x="232.426573" y="448.56" style="stroke: #000000; stroke-width: 0.8"/>
      </g>
     </g>
     <g id="text_3">
      <!-- 0.50 -->
      <g transform="translate(221.293761 463.158437) scale(0.1 -0.1)">
       <use xlink:href="#DejaVuSans-30"/>
       <use xlink:href="#DejaVuSans-2e" x="63.623047"/>
       <use xlink:href="#DejaVuSans-35" x="95.410156"/>
       <use xlink:href="#DejaVuSans-30" x="159.033203"/>
      </g>
     </g>
    </g>
    <g id="xtick_4">
     <g id="line2d_4">
      <g>
       <use xlink:href="#m8a6f51b0fa" x="297.461538" y="448.56" style="stroke: #000000; stroke-width: 0.8"/>
      </g>
     </g>
     <g id="text_4">
      <!-- 0.75 -->
      <g transform="translate(286.328726 463.158437) scale(0.1 -0.1)">
       <defs>
        <path id="DejaVuSans-37" d="M 525 4666 
L 3525 4666 
L 3525 4397 
L 1831 0 
L 1172 0 
L 2766 4134 
L 525 4134 
L 525 4666 
z
" transform="scale(0.015625)"/>
       </defs>
       <use xlink:href="#DejaVuSans-30"/>
       <use xlink:href="#DejaVuSans-2e" x="63.623047"/>
       <use xlink:href="#DejaVuSans-37" x="95.410156"/>
       <use xlink:href="#DejaVuSans-35" x="159.033203"/>
      </g>
     </g>
    </g>
    <g id="xtick_5">
     <g id="line2d_5">
      <g>
       <use xlink:href="#m8a6f51b0fa" x="362.496503" y="448.56" style="stroke: #000000; stroke-width: 0.8"/>
      </g>
     </g>
     <g id="text_5">
      <!-- 1.00 -->
      <g transform="translate(351.363691 463.158437) scale(0.1 -0.1)">
       <defs>
        <path id="DejaVuSans-31" d="M 794 531 
L 1825 531 
L 1825 4091 
L 703 3866 
L 703 4441 
L 1819 4666 
L 2450 4666 
L 2450 531 
L 3481 531 
L 3481 0 
L 794 0 
L 794 531 
z
" transform="scale(0.015625)"/>
       </defs>
       <use xlink:href="#DejaVuSans-31"/>
       <use xlink:href="#DejaVuSans-2e" x="63.623047"/>
       <use xlink:href="#DejaVuSans-30" x="95.410156"/>
       <use xlink:href="#DejaVuSans-30" x="159.033203"/>
      </g>
     </g>
    </g>
    <g id="xtick_6">
     <g id="line2d_6">
      <g>
       <use xlink:href="#m8a6f51b0fa" x="427.531469" y="448.56" style="stroke: #000000; stroke-width: 0.8"/>
      </g>
     </g>
     <g id="text_6">
      <!-- 1.25 -->
      <g transform="translate(416.398656 463.158437) scale(0.1 -0.1)">
       <use xlink:href="#DejaVuSans-31"/>
       <use xlink:href="#DejaVuSans-2e" x="63.623047"/>
       <use xlink:href="#DejaVuSans-32" x="95.410156"/>
       <use xlink:href="#DejaVuSans-35" x="159.033203"/>
      </g>
     </g>
    </g>
    <g id="xtick_7">
     <g id="line2d_7">
      <g>
       <use xlink:href="#m8a6f51b0fa" x="492.566434" y="448.56" style="stroke: #000000; stroke-width: 0.8"/>
      </g>
     </g>
     <g id="text_7">
      <!-- 1.50 -->
      <g transform="translate(481.433621 463.158437) scale(0.1 -0.1)">
       <use xlink:href="#DejaVuSans-31"/>
       <use xlink:href="#DejaVuSans-2e" x="63.623047"/>
       <use xlink:href="#DejaVuSans-35" x="95.410156"/>
       <use xlink:href="#DejaVuSans-30" x="159.033203"/>
      </g>
     </g>
    </g>
    <g id="xtick_8">
     <g id="line2d_8">
      <g>
       <use xlink:href="#m8a6f51b0fa" x="557.601399" y="448.56" style="stroke: #000000; stroke-width: 0.8"/>
      </g>
     </g>
     <g id="text_8">
      <!-- 1.75 -->
      <g transform="translate(546.468586 463.158437) scale(0.1 -0.1)">
       <use xlink:href="#DejaVuSans-31"/>
       <use xlink:href="#DejaVuSans-2e" x="63.623047"/>
       <use xlink:href="#DejaVuSans-37" x="95.410156"/>
       <use xlink:href="#DejaVuSans-35" x="159.033203"/>
      </g>
     </g>
    </g>
    <g id="xtick_9">
     <g id="line2d_9">
      <g>
       <use xlink:href="#m8a6f51b0fa" x="622.636364" y="448.56" style="stroke: #000000; stroke-width: 0.8"/>
      </g>
     </g>
     <g id="text_9">
      <!-- 2.00 -->
      <g transform="translate(611.503551 463.158437) scale(0.1 -0.1)">
       <use xlink:href="#DejaVuSans-32"/>
       <use xlink:href="#DejaVuSans-2e" x="63.623047"/>
       <use xlink:href="#DejaVuSans-30" x="95.410156"/>
       <use xlink:href="#DejaVuSans-30" x="159.033203"/>
      </g>
     </g>
    </g>
    <g id="text_10">
     <!-- Input Charge Pulse (pC) -->
     <g transform="translate(309.609375 476.836563) scale(0.1 -0.1)">
      <defs>
       <path id="DejaVuSans-49" d="M 628 4666 
L 1259 4666 
L 1259 0 
L 628 0 
L 628 4666 
z
" transform="scale(0.015625)"/>
       <path id="DejaVuSans-6e" d="M 3513 2113 
L 3513 0 
L 2938 0 
L 2938 2094 
Q 2938 2591 2744 2837 
Q 2550 3084 2163 3084 
Q 1697 3084 1428 2787 
Q 1159 2491 1159 1978 
L 1159 0 
L 581 0 
L 581 3500 
L 1159 3500 
L 1159 2956 
Q 1366 3272 1645 3428 
Q 1925 3584 2291 3584 
Q 2894 3584 3203 3211 
Q 3513 2838 3513 2113 
z
" transform="scale(0.015625)"/>
       <path id="DejaVuSans-70" d="M 1159 525 
L 1159 -1331 
L 581 -1331 
L 581 3500 
L 1159 3500 
L 1159 2969 
Q 1341 3281 1617 3432 
Q 1894 3584 2278 3584 
Q 2916 3584 3314 3078 
Q 3713 2572 3713 1747 
Q 3713 922 3314 415 
Q 2916 -91 2278 -91 
Q 1894 -91 1617 61 
Q 1341 213 1159 525 
z
M 3116 1747 
Q 3116 2381 2855 2742 
Q 2594 3103 2138 3103 
Q 1681 3103 1420 2742 
Q 1159 2381 1159 1747 
Q 1159 1113 1420 752 
Q 1681 391 2138 391 
Q 2594 391 2855 752 
Q 3116 1113 3116 1747 
z
" transform="scale(0.015625)"/>
       <path id="DejaVuSans-75" d="M 544 1381 
L 544 3500 
L 1119 3500 
L 1119 1403 
Q 1119 906 1312 657 
Q 1506 409 1894 409 
Q 2359 409 2629 706 
Q 2900 1003 2900 1516 
L 2900 3500 
L 3475 3500 
L 3475 0 
L 2900 0 
L 2900 538 
Q 2691 219 2414 64 
Q 2138 -91 1772 -91 
Q 1169 -91 856 284 
Q 544 659 544 1381 
z
M 1991 3584 
L 1991 3584 
z
" transform="scale(0.015625)"/>
       <path id="DejaVuSans-74" d="M 1172 4494 
L 1172 3500 
L 2356 3500 
L 2356 3053 
L 1172 3053 
L 1172 1153 
Q 1172 725 1289 603 
Q 1406 481 1766 481 
L 2356 481 
L 2356 0 
L 1766 0 
Q 1100 0 847 248 
Q 594 497 594 1153 
L 594 3053 
L 172 3053 
L 172 3500 
L 594 3500 
L 594 4494 
L 1172 4494 
z
" transform="scale(0.015625)"/>
       <path id="DejaVuSans-20" transform="scale(0.015625)"/>
       <path id="DejaVuSans-43" d="M 4122 4306 
L 4122 3641 
Q 3803 3938 3442 4084 
Q 3081 4231 2675 4231 
Q 1875 4231 1450 3742 
Q 1025 3253 1025 2328 
Q 1025 1406 1450 917 
Q 1875 428 2675 428 
Q 3081 428 3442 575 
Q 3803 722 4122 1019 
L 4122 359 
Q 3791 134 3420 21 
Q 3050 -91 2638 -91 
Q 1578 -91 968 557 
Q 359 1206 359 2328 
Q 359 3453 968 4101 
Q 1578 4750 2638 4750 
Q 3056 4750 3426 4639 
Q 3797 4528 4122 4306 
z
" transform="scale(0.015625)"/>
       <path id="DejaVuSans-68" d="M 3513 2113 
L 3513 0 
L 2938 0 
L 2938 2094 
Q 2938 2591 2744 2837 
Q 2550 3084 2163 3084 
Q 1697 3084 1428 2787 
Q 1159 2491 1159 1978 
L 1159 0 
L 581 0 
L 581 4863 
L 1159 4863 
L 1159 2956 
Q 1366 3272 1645 3428 
Q 1925 3584 2291 3584 
Q 2894 3584 3203 3211 
Q 3513 2838 3513 2113 
z
" transform="scale(0.015625)"/>
       <path id="DejaVuSans-61" d="M 2194 1759 
Q 1497 1759 1228 1600 
Q 959 1441 959 1056 
Q 959 750 1161 570 
Q 1363 391 1709 391 
Q 2188 391 2477 730 
Q 2766 1069 2766 1631 
L 2766 1759 
L 2194 1759 
z
M 3341 1997 
L 3341 0 
L 2766 0 
L 2766 531 
Q 2569 213 2275 61 
Q 1981 -91 1556 -91 
Q 1019 -91 701 211 
Q 384 513 384 1019 
Q 384 1609 779 1909 
Q 1175 2209 1959 2209 
L 2766 2209 
L 2766 2266 
Q 2766 2663 2505 2880 
Q 2244 3097 1772 3097 
Q 1472 3097 1187 3025 
Q 903 2953 641 2809 
L 641 3341 
Q 956 3463 1253 3523 
Q 1550 3584 1831 3584 
Q 2591 3584 2966 3190 
Q 3341 2797 3341 1997 
z
" transform="scale(0.015625)"/>
       <path id="DejaVuSans-72" d="M 2631 2963 
Q 2534 3019 2420 3045 
Q 2306 3072 2169 3072 
Q 1681 3072 1420 2755 
Q 1159 2438 1159 1844 
L 1159 0 
L 581 0 
L 581 3500 
L 1159 3500 
L 1159 2956 
Q 1341 3275 1631 3429 
Q 1922 3584 2338 3584 
Q 2397 3584 2469 3576 
Q 2541 3569 2628 3553 
L 2631 2963 
z
" transform="scale(0.015625)"/>
       <path id="DejaVuSans-67" d="M 2906 1791 
Q 2906 2416 2648 2759 
Q 2391 3103 1925 3103 
Q 1463 3103 1205 2759 
Q 947 2416 947 1791 
Q 947 1169 1205 825 
Q 1463 481 1925 481 
Q 2391 481 2648 825 
Q 2906 1169 2906 1791 
z
M 3481 434 
Q 3481 -459 3084 -895 
Q 2688 -1331 1869 -1331 
Q 1566 -1331 1297 -1286 
Q 1028 -1241 775 -1147 
L 775 -588 
Q 1028 -725 1275 -790 
Q 1522 -856 1778 -856 
Q 2344 -856 2625 -561 
Q 2906 -266 2906 331 
L 2906 616 
Q 2728 306 2450 153 
Q 2172 0 1784 0 
Q 1141 0 747 490 
Q 353 981 353 1791 
Q 353 2603 747 3093 
Q 1141 3584 1784 3584 
Q 2172 3584 2450 3431 
Q 2728 3278 2906 2969 
L 2906 3500 
L 3481 3500 
L 3481 434 
z
" transform="scale(0.015625)"/>
       <path id="DejaVuSans-65" d="M 3597 1894 
L 3597 1613 
L 953 1613 
Q 991 1019 1311 708 
Q 1631 397 2203 397 
Q 2534 397 2845 478 
Q 3156 559 3463 722 
L 3463 178 
Q 3153 47 2828 -22 
Q 2503 -91 2169 -91 
Q 1331 -91 842 396 
Q 353 884 353 1716 
Q 353 2575 817 3079 
Q 1281 3584 2069 3584 
Q 2775 3584 3186 3129 
Q 3597 2675 3597 1894 
z
M 3022 2063 
Q 3016 2534 2758 2815 
Q 2500 3097 2075 3097 
Q 1594 3097 1305 2825 
Q 1016 2553 972 2059 
L 3022 2063 
z
" transform="scale(0.015625)"/>
       <path id="DejaVuSans-50" d="M 1259 4147 
L 1259 2394 
L 2053 2394 
Q 2494 2394 2734 2622 
Q 2975 2850 2975 3272 
Q 2975 3691 2734 3919 
Q 2494 4147 2053 4147 
L 1259 4147 
z
M 628 4666 
L 2053 4666 
Q 2838 4666 3239 4311 
Q 3641 3956 3641 3272 
Q 3641 2581 3239 2228 
Q 2838 1875 2053 1875 
L 1259 1875 
L 1259 0 
L 628 0 
L 628 4666 
z
" transform="scale(0.015625)"/>
       <path id="DejaVuSans-6c" d="M 603 4863 
L 1178 4863 
L 1178 0 
L 603 0 
L 603 4863 
z
" transform="scale(0.015625)"/>
       <path id="DejaVuSans-73" d="M 2834 3397 
L 2834 2853 
Q 2591 2978 2328 3040 
Q 2066 3103 1784 3103 
Q 1356 3103 1142 2972 
Q 928 2841 928 2578 
Q 928 2378 1081 2264 
Q 1234 2150 1697 2047 
L 1894 2003 
Q 2506 1872 2764 1633 
Q 3022 1394 3022 966 
Q 3022 478 2636 193 
Q 2250 -91 1575 -91 
Q 1294 -91 989 -36 
Q 684 19 347 128 
L 347 722 
Q 666 556 975 473 
Q 1284 391 1588 391 
Q 1994 391 2212 530 
Q 2431 669 2431 922 
Q 2431 1156 2273 1281 
Q 2116 1406 1581 1522 
L 1381 1569 
Q 847 1681 609 1914 
Q 372 2147 372 2553 
Q 372 3047 722 3315 
Q 1072 3584 1716 3584 
Q 2034 3584 2315 3537 
Q 2597 3491 2834 3397 
z
" transform="scale(0.015625)"/>
       <path id="DejaVuSans-28" d="M 1984 4856 
Q 1566 4138 1362 3434 
Q 1159 2731 1159 2009 
Q 1159 1288 1364 580 
Q 1569 -128 1984 -844 
L 1484 -844 
Q 1016 -109 783 600 
Q 550 1309 550 2009 
Q 550 2706 781 3412 
Q 1013 4119 1484 4856 
L 1984 4856 
z
" transform="scale(0.015625)"/>
       <path id="DejaVuSans-29" d="M 513 4856 
L 1013 4856 
Q 1481 4119 1714 3412 
Q 1947 2706 1947 2009 
Q 1947 1309 1714 600 
Q 1481 -109 1013 -844 
L 513 -844 
Q 928 -128 1133 580 
Q 1338 1288 1338 2009 
Q 1338 2731 1133 3434 
Q 928 4138 513 4856 
z
" transform="scale(0.015625)"/>
      </defs>
      <use xlink:href="#DejaVuSans-49"/>
      <use xlink:href="#DejaVuSans-6e" x="29.492188"/>
      <use xlink:href="#DejaVuSans-70" x="92.871094"/>
      <use xlink:href="#DejaVuSans-75" x="156.347656"/>
      <use xlink:href="#DejaVuSans-74" x="219.726562"/>
      <use xlink:href="#DejaVuSans-20" x="258.935547"/>
      <use xlink:href="#DejaVuSans-43" x="290.722656"/>
      <use xlink:href="#DejaVuSans-68" x="360.546875"/>
      <use xlink:href="#DejaVuSans-61" x="423.925781"/>
      <use xlink:href="#DejaVuSans-72" x="485.205078"/>
      <use xlink:href="#DejaVuSans-67" x="524.568359"/>
      <use xlink:href="#DejaVuSans-65" x="588.044922"/>
      <use xlink:href="#DejaVuSans-20" x="649.568359"/>
      <use xlink:href="#DejaVuSans-50" x="681.355469"/>
      <use xlink:href="#DejaVuSans-75" x="739.908203"/>
      <use xlink:href="#DejaVuSans-6c" x="803.287109"/>
      <use xlink:href="#DejaVuSans-73" x="831.070312"/>
      <use xlink:href="#DejaVuSans-65" x="883.169922"/>
      <use xlink:href="#DejaVuSans-20" x="944.693359"/>
      <use xlink:href="#DejaVuSans-28" x="976.480469"/>
      <use xlink:href="#DejaVuSans-70" x="1015.494141"/>
      <use xlink:href="#DejaVuSans-43" x="1078.970703"/>
      <use xlink:href="#DejaVuSans-29" x="1148.794922"/>
     </g>
    </g>
   </g>
   <g id="matplotlib.axis_2">
    <g id="ytick_1">
     <g id="line2d_10">
      <defs>
       <path id="m638b64da54" d="M 0 0 
L -3.5 0 
" style="stroke: #000000; stroke-width: 0.8"/>
      </defs>
      <g>
       <use xlink:href="#m638b64da54" x="90" y="429.392346" style="stroke: #000000; stroke-width: 0.8"/>
      </g>
     </g>
     <g id="text_11">
      <!-- 0.0 -->
      <g transform="translate(67.096875 433.191565) scale(0.1 -0.1)">
       <use xlink:href="#DejaVuSans-30"/>
       <use xlink:href="#DejaVuSans-2e" x="63.623047"/>
       <use xlink:href="#DejaVuSans-30" x="95.410156"/>
      </g>
     </g>
    </g>
    <g id="ytick_2">
     <g id="line2d_11">
      <g>
       <use xlink:href="#m638b64da54" x="90" y="358.36811" style="stroke: #000000; stroke-width: 0.8"/>
      </g>
     </g>
     <g id="text_12">
      <!-- 0.5 -->
      <g transform="translate(67.096875 362.167329) scale(0.1 -0.1)">
       <use xlink:href="#DejaVuSans-30"/>
       <use xlink:href="#DejaVuSans-2e" x="63.623047"/>
       <use xlink:href="#DejaVuSans-35" x="95.410156"/>
      </g>
     </g>
    </g>
    <g id="ytick_3">
     <g id="line2d_12">
      <g>
       <use xlink:href="#m638b64da54" x="90" y="287.343874" style="stroke: #000000; stroke-width: 0.8"/>
      </g>
     </g>
     <g id="text_13">
      <!-- 1.0 -->
      <g transform="translate(67.096875 291.143092) scale(0.1 -0.1)">
       <use xlink:href="#DejaVuSans-31"/>
       <use xlink:href="#DejaVuSans-2e" x="63.623047"/>
       <use xlink:href="#DejaVuSans-30" x="95.410156"/>
      </g>
     </g>
    </g>
    <g id="ytick_4">
     <g id="line2d_13">
      <g>
       <use xlink:href="#m638b64da54" x="90" y="216.319637" style="stroke: #000000; stroke-width: 0.8"/>
      </g>
     </g>
     <g id="text_14">
      <!-- 1.5 -->
      <g transform="translate(67.096875 220.118856) scale(0.1 -0.1)">
       <use xlink:href="#DejaVuSans-31"/>
       <use xlink:href="#DejaVuSans-2e" x="63.623047"/>
       <use xlink:href="#DejaVuSans-35" x="95.410156"/>
      </g>
     </g>
    </g>
    <g id="ytick_5">
     <g id="line2d_14">
      <g>
       <use xlink:href="#m638b64da54" x="90" y="145.295401" style="stroke: #000000; stroke-width: 0.8"/>
      </g>
     </g>
     <g id="text_15">
      <!-- 2.0 -->
      <g transform="translate(67.096875 149.09462) scale(0.1 -0.1)">
       <use xlink:href="#DejaVuSans-32"/>
       <use xlink:href="#DejaVuSans-2e" x="63.623047"/>
       <use xlink:href="#DejaVuSans-30" x="95.410156"/>
      </g>
     </g>
    </g>
    <g id="ytick_6">
     <g id="line2d_15">
      <g>
       <use xlink:href="#m638b64da54" x="90" y="74.271165" style="stroke: #000000; stroke-width: 0.8"/>
      </g>
     </g>
     <g id="text_16">
      <!-- 2.5 -->
      <g transform="translate(67.096875 78.070384) scale(0.1 -0.1)">
       <use xlink:href="#DejaVuSans-32"/>
       <use xlink:href="#DejaVuSans-2e" x="63.623047"/>
       <use xlink:href="#DejaVuSans-35" x="95.410156"/>
      </g>
     </g>
    </g>
    <g id="text_17">
     <!-- Output Amplitude (V) -->
     <g transform="translate(61.017187 308.010625) rotate(-90) scale(0.1 -0.1)">
      <defs>
       <path id="DejaVuSans-4f" d="M 2522 4238 
Q 1834 4238 1429 3725 
Q 1025 3213 1025 2328 
Q 1025 1447 1429 934 
Q 1834 422 2522 422 
Q 3209 422 3611 934 
Q 4013 1447 4013 2328 
Q 4013 3213 3611 3725 
Q 3209 4238 2522 4238 
z
M 2522 4750 
Q 3503 4750 4090 4092 
Q 4678 3434 4678 2328 
Q 4678 1225 4090 567 
Q 3503 -91 2522 -91 
Q 1538 -91 948 565 
Q 359 1222 359 2328 
Q 359 3434 948 4092 
Q 1538 4750 2522 4750 
z
" transform="scale(0.015625)"/>
       <path id="DejaVuSans-41" d="M 2188 4044 
L 1331 1722 
L 3047 1722 
L 2188 4044 
z
M 1831 4666 
L 2547 4666 
L 4325 0 
L 3669 0 
L 3244 1197 
L 1141 1197 
L 716 0 
L 50 0 
L 1831 4666 
z
" transform="scale(0.015625)"/>
       <path id="DejaVuSans-6d" d="M 3328 2828 
Q 3544 3216 3844 3400 
Q 4144 3584 4550 3584 
Q 5097 3584 5394 3201 
Q 5691 2819 5691 2113 
L 5691 0 
L 5113 0 
L 5113 2094 
Q 5113 2597 4934 2840 
Q 4756 3084 4391 3084 
Q 3944 3084 3684 2787 
Q 3425 2491 3425 1978 
L 3425 0 
L 2847 0 
L 2847 2094 
Q 2847 2600 2669 2842 
Q 2491 3084 2119 3084 
Q 1678 3084 1418 2786 
Q 1159 2488 1159 1978 
L 1159 0 
L 581 0 
L 581 3500 
L 1159 3500 
L 1159 2956 
Q 1356 3278 1631 3431 
Q 1906 3584 2284 3584 
Q 2666 3584 2933 3390 
Q 3200 3197 3328 2828 
z
" transform="scale(0.015625)"/>
       <path id="DejaVuSans-69" d="M 603 3500 
L 1178 3500 
L 1178 0 
L 603 0 
L 603 3500 
z
M 603 4863 
L 1178 4863 
L 1178 4134 
L 603 4134 
L 603 4863 
z
" transform="scale(0.015625)"/>
       <path id="DejaVuSans-64" d="M 2906 2969 
L 2906 4863 
L 3481 4863 
L 3481 0 
L 2906 0 
L 2906 525 
Q 2725 213 2448 61 
Q 2172 -91 1784 -91 
Q 1150 -91 751 415 
Q 353 922 353 1747 
Q 353 2572 751 3078 
Q 1150 3584 1784 3584 
Q 2172 3584 2448 3432 
Q 2725 3281 2906 2969 
z
M 947 1747 
Q 947 1113 1208 752 
Q 1469 391 1925 391 
Q 2381 391 2643 752 
Q 2906 1113 2906 1747 
Q 2906 2381 2643 2742 
Q 2381 3103 1925 3103 
Q 1469 3103 1208 2742 
Q 947 2381 947 1747 
z
" transform="scale(0.015625)"/>
       <path id="DejaVuSans-56" d="M 1831 0 
L 50 4666 
L 709 4666 
L 2188 738 
L 3669 4666 
L 4325 4666 
L 2547 0 
L 1831 0 
z
" transform="scale(0.015625)"/>
      </defs>
      <use xlink:href="#DejaVuSans-4f"/>
      <use xlink:href="#DejaVuSans-75" x="78.710938"/>
      <use xlink:href="#DejaVuSans-74" x="142.089844"/>
      <use xlink:href="#DejaVuSans-70" x="181.298828"/>
      <use xlink:href="#DejaVuSans-75" x="244.775391"/>
      <use xlink:href="#DejaVuSans-74" x="308.154297"/>
      <use xlink:href="#DejaVuSans-20" x="347.363281"/>
      <use xlink:href="#DejaVuSans-41" x="379.150391"/>
      <use xlink:href="#DejaVuSans-6d" x="447.558594"/>
      <use xlink:href="#DejaVuSans-70" x="544.970703"/>
      <use xlink:href="#DejaVuSans-6c" x="608.447266"/>
      <use xlink:href="#DejaVuSans-69" x="636.230469"/>
      <use xlink:href="#DejaVuSans-74" x="664.013672"/>
      <use xlink:href="#DejaVuSans-75" x="703.222656"/>
      <use xlink:href="#DejaVuSans-64" x="766.601562"/>
      <use xlink:href="#DejaVuSans-65" x="830.078125"/>
      <use xlink:href="#DejaVuSans-20" x="891.601562"/>
      <use xlink:href="#DejaVuSans-28" x="923.388672"/>
      <use xlink:href="#DejaVuSans-56" x="962.402344"/>
      <use xlink:href="#DejaVuSans-29" x="1030.810547"/>
     </g>
    </g>
   </g>
   <g id="LineCollection_1">
    <path d="M 115.363636 430.92 
L 115.363636 430.310703 
" clip-path="url(#p8ee6050ff3)" style="fill: none; stroke: #1f77b4; stroke-width: 1.5"/>
    <path d="M 130.283422 410.77212 
L 130.283422 410.088897 
" clip-path="url(#p8ee6050ff3)" style="fill: none; stroke: #1f77b4; stroke-width: 1.5"/>
    <path d="M 145.203209 400.384037 
L 145.203209 399.612177 
" clip-path="url(#p8ee6050ff3)" style="fill: none; stroke: #1f77b4; stroke-width: 1.5"/>
    <path d="M 160.122995 390.576566 
L 160.122995 389.707104 
" clip-path="url(#p8ee6050ff3)" style="fill: none; stroke: #1f77b4; stroke-width: 1.5"/>
    <path d="M 175.042781 380.051199 
L 175.042781 379.157232 
" clip-path="url(#p8ee6050ff3)" style="fill: none; stroke: #1f77b4; stroke-width: 1.5"/>
    <path d="M 189.962567 369.300488 
L 189.962567 368.193583 
" clip-path="url(#p8ee6050ff3)" style="fill: none; stroke: #1f77b4; stroke-width: 1.5"/>
    <path d="M 204.882353 359.865243 
L 204.882353 358.677597 
" clip-path="url(#p8ee6050ff3)" style="fill: none; stroke: #1f77b4; stroke-width: 1.5"/>
    <path d="M 219.802139 350.149068 
L 219.802139 348.832879 
" clip-path="url(#p8ee6050ff3)" style="fill: none; stroke: #1f77b4; stroke-width: 1.5"/>
    <path d="M 234.721925 339.23531 
L 234.721925 337.789563 
" clip-path="url(#p8ee6050ff3)" style="fill: none; stroke: #1f77b4; stroke-width: 1.5"/>
    <path d="M 249.641711 329.283328 
L 249.641711 327.696295 
" clip-path="url(#p8ee6050ff3)" style="fill: none; stroke: #1f77b4; stroke-width: 1.5"/>
    <path d="M 264.561497 319.102599 
L 264.561497 317.342431 
" clip-path="url(#p8ee6050ff3)" style="fill: none; stroke: #1f77b4; stroke-width: 1.5"/>
    <path d="M 279.481283 308.612016 
L 279.481283 306.737175 
" clip-path="url(#p8ee6050ff3)" style="fill: none; stroke: #1f77b4; stroke-width: 1.5"/>
    <path d="M 294.40107 298.785861 
L 294.40107 296.74986 
" clip-path="url(#p8ee6050ff3)" style="fill: none; stroke: #1f77b4; stroke-width: 1.5"/>
    <path d="M 309.320856 288.60359 
L 309.320856 286.435298 
" clip-path="url(#p8ee6050ff3)" style="fill: none; stroke: #1f77b4; stroke-width: 1.5"/>
    <path d="M 324.240642 278.877243 
L 324.240642 276.571082 
" clip-path="url(#p8ee6050ff3)" style="fill: none; stroke: #1f77b4; stroke-width: 1.5"/>
    <path d="M 339.160428 267.589977 
L 339.160428 265.090364 
" clip-path="url(#p8ee6050ff3)" style="fill: none; stroke: #1f77b4; stroke-width: 1.5"/>
    <path d="M 354.080214 258.143946 
L 354.080214 255.444927 
" clip-path="url(#p8ee6050ff3)" style="fill: none; stroke: #1f77b4; stroke-width: 1.5"/>
    <path d="M 369 247.469069 
L 369 244.695665 
" clip-path="url(#p8ee6050ff3)" style="fill: none; stroke: #1f77b4; stroke-width: 1.5"/>
    <path d="M 383.919786 238.485475 
L 383.919786 235.552082 
" clip-path="url(#p8ee6050ff3)" style="fill: none; stroke: #1f77b4; stroke-width: 1.5"/>
    <path d="M 398.839572 227.774756 
L 398.839572 224.641567 
" clip-path="url(#p8ee6050ff3)" style="fill: none; stroke: #1f77b4; stroke-width: 1.5"/>
    <path d="M 413.759358 219.148731 
L 413.759358 215.900475 
" clip-path="url(#p8ee6050ff3)" style="fill: none; stroke: #1f77b4; stroke-width: 1.5"/>
    <path d="M 428.679144 208.660478 
L 428.679144 205.279981 
" clip-path="url(#p8ee6050ff3)" style="fill: none; stroke: #1f77b4; stroke-width: 1.5"/>
    <path d="M 443.59893 199.215259 
L 443.59893 195.658517 
" clip-path="url(#p8ee6050ff3)" style="fill: none; stroke: #1f77b4; stroke-width: 1.5"/>
    <path d="M 458.518717 189.261505 
L 458.518717 185.605421 
" clip-path="url(#p8ee6050ff3)" style="fill: none; stroke: #1f77b4; stroke-width: 1.5"/>
    <path d="M 473.438503 179.044925 
L 473.438503 175.197697 
" clip-path="url(#p8ee6050ff3)" style="fill: none; stroke: #1f77b4; stroke-width: 1.5"/>
    <path d="M 488.358289 169.690857 
L 488.358289 165.731498 
" clip-path="url(#p8ee6050ff3)" style="fill: none; stroke: #1f77b4; stroke-width: 1.5"/>
    <path d="M 503.278075 159.847272 
L 503.278075 155.686514 
" clip-path="url(#p8ee6050ff3)" style="fill: none; stroke: #1f77b4; stroke-width: 1.5"/>
    <path d="M 518.197861 149.370105 
L 518.197861 145.093073 
" clip-path="url(#p8ee6050ff3)" style="fill: none; stroke: #1f77b4; stroke-width: 1.5"/>
    <path d="M 533.117647 140.14427 
L 533.117647 135.185997 
" clip-path="url(#p8ee6050ff3)" style="fill: none; stroke: #1f77b4; stroke-width: 1.5"/>
    <path d="M 548.037433 132.104784 
L 548.037433 127.066864 
" clip-path="url(#p8ee6050ff3)" style="fill: none; stroke: #1f77b4; stroke-width: 1.5"/>
    <path d="M 562.957219 122.5663 
L 562.957219 117.394481 
" clip-path="url(#p8ee6050ff3)" style="fill: none; stroke: #1f77b4; stroke-width: 1.5"/>
    <path d="M 577.877005 114.357226 
L 577.877005 109.040121 
" clip-path="url(#p8ee6050ff3)" style="fill: none; stroke: #1f77b4; stroke-width: 1.5"/>
    <path d="M 592.796791 104.659691 
L 592.796791 99.291243 
" clip-path="url(#p8ee6050ff3)" style="fill: none; stroke: #1f77b4; stroke-width: 1.5"/>
    <path d="M 607.716578 96.332546 
L 607.716578 90.726049 
" clip-path="url(#p8ee6050ff3)" style="fill: none; stroke: #1f77b4; stroke-width: 1.5"/>
    <path d="M 622.636364 88.051823 
L 622.636364 82.418122 
" clip-path="url(#p8ee6050ff3)" style="fill: none; stroke: #1f77b4; stroke-width: 1.5"/>
   </g>
   <g id="line2d_16">
    <defs>
     <path id="m09cf611fdf" d="M 3 0 
L -3 -0 
" style="stroke: #1f77b4"/>
    </defs>
    <g clip-path="url(#p8ee6050ff3)">
     <use xlink:href="#m09cf611fdf" x="115.363636" y="430.92" style="fill: #1f77b4; stroke: #1f77b4"/>
     <use xlink:href="#m09cf611fdf" x="130.283422" y="410.77212" style="fill: #1f77b4; stroke: #1f77b4"/>
     <use xlink:href="#m09cf611fdf" x="145.203209" y="400.384037" style="fill: #1f77b4; stroke: #1f77b4"/>
     <use xlink:href="#m09cf611fdf" x="160.122995" y="390.576566" style="fill: #1f77b4; stroke: #1f77b4"/>
     <use xlink:href="#m09cf611fdf" x="175.042781" y="380.051199" style="fill: #1f77b4; stroke: #1f77b4"/>
     <use xlink:href="#m09cf611fdf" x="189.962567" y="369.300488" style="fill: #1f77b4; stroke: #1f77b4"/>
     <use xlink:href="#m09cf611fdf" x="204.882353" y="359.865243" style="fill: #1f77b4; stroke: #1f77b4"/>
     <use xlink:href="#m09cf611fdf" x="219.802139" y="350.149068" style="fill: #1f77b4; stroke: #1f77b4"/>
     <use xlink:href="#m09cf611fdf" x="234.721925" y="339.23531" style="fill: #1f77b4; stroke: #1f77b4"/>
     <use xlink:href="#m09cf611fdf" x="249.641711" y="329.283328" style="fill: #1f77b4; stroke: #1f77b4"/>
     <use xlink:href="#m09cf611fdf" x="264.561497" y="319.102599" style="fill: #1f77b4; stroke: #1f77b4"/>
     <use xlink:href="#m09cf611fdf" x="279.481283" y="308.612016" style="fill: #1f77b4; stroke: #1f77b4"/>
     <use xlink:href="#m09cf611fdf" x="294.40107" y="298.785861" style="fill: #1f77b4; stroke: #1f77b4"/>
     <use xlink:href="#m09cf611fdf" x="309.320856" y="288.60359" style="fill: #1f77b4; stroke: #1f77b4"/>
     <use xlink:href="#m09cf611fdf" x="324.240642" y="278.877243" style="fill: #1f77b4; stroke: #1f77b4"/>
     <use xlink:href="#m09cf611fdf" x="339.160428" y="267.589977" style="fill: #1f77b4; stroke: #1f77b4"/>
     <use xlink:href="#m09cf611fdf" x="354.080214" y="258.143946" style="fill: #1f77b4; stroke: #1f77b4"/>
     <use xlink:href="#m09cf611fdf" x="369" y="247.469069" style="fill: #1f77b4; stroke: #1f77b4"/>
     <use xlink:href="#m09cf611fdf" x="383.919786" y="238.485475" style="fill: #1f77b4; stroke: #1f77b4"/>
     <use xlink:href="#m09cf611fdf" x="398.839572" y="227.774756" style="fill: #1f77b4; stroke: #1f77b4"/>
     <use xlink:href="#m09cf611fdf" x="413.759358" y="219.148731" style="fill: #1f77b4; stroke: #1f77b4"/>
     <use xlink:href="#m09cf611fdf" x="428.679144" y="208.660478" style="fill: #1f77b4; stroke: #1f77b4"/>
     <use xlink:href="#m09cf611fdf" x="443.59893" y="199.215259" style="fill: #1f77b4; stroke: #1f77b4"/>
     <use xlink:href="#m09cf611fdf" x="458.518717" y="189.261505" style="fill: #1f77b4; stroke: #1f77b4"/>
     <use xlink:href="#m09cf611fdf" x="473.438503" y="179.044925" style="fill: #1f77b4; stroke: #1f77b4"/>
     <use xlink:href="#m09cf611fdf" x="488.358289" y="169.690857" style="fill: #1f77b4; stroke: #1f77b4"/>
     <use xlink:href="#m09cf611fdf" x="503.278075" y="159.847272" style="fill: #1f77b4; stroke: #1f77b4"/>
     <use xlink:href="#m09cf611fdf" x="518.197861" y="149.370105" style="fill: #1f77b4; stroke: #1f77b4"/>
     <use xlink:href="#m09cf611fdf" x="533.117647" y="140.14427" style="fill: #1f77b4; stroke: #1f77b4"/>
     <use xlink:href="#m09cf611fdf" x="548.037433" y="132.104784" style="fill: #1f77b4; stroke: #1f77b4"/>
     <use xlink:href="#m09cf611fdf" x="562.957219" y="122.5663" style="fill: #1f77b4; stroke: #1f77b4"/>
     <use xlink:href="#m09cf611fdf" x="577.877005" y="114.357226" style="fill: #1f77b4; stroke: #1f77b4"/>
     <use xlink:href="#m09cf611fdf" x="592.796791" y="104.659691" style="fill: #1f77b4; stroke: #1f77b4"/>
     <use xlink:href="#m09cf611fdf" x="607.716578" y="96.332546" style="fill: #1f77b4; stroke: #1f77b4"/>
     <use xlink:href="#m09cf611fdf" x="622.636364" y="88.051823" style="fill: #1f77b4; stroke: #1f77b4"/>
    </g>
   </g>
   <g id="line2d_17">
    <g clip-path="url(#p8ee6050ff3)">
     <use xlink:href="#m09cf611fdf" x="115.363636" y="430.310703" style="fill: #1f77b4; stroke: #1f77b4"/>
     <use xlink:href="#m09cf611fdf" x="130.283422" y="410.088897" style="fill: #1f77b4; stroke: #1f77b4"/>
     <use xlink:href="#m09cf611fdf" x="145.203209" y="399.612177" style="fill: #1f77b4; stroke: #1f77b4"/>
     <use xlink:href="#m09cf611fdf" x="160.122995" y="389.707104" style="fill: #1f77b4; stroke: #1f77b4"/>
     <use xlink:href="#m09cf611fdf" x="175.042781" y="379.157232" style="fill: #1f77b4; stroke: #1f77b4"/>
     <use xlink:href="#m09cf611fdf" x="189.962567" y="368.193583" style="fill: #1f77b4; stroke: #1f77b4"/>
     <use xlink:href="#m09cf611fdf" x="204.882353" y="358.677597" style="fill: #1f77b4; stroke: #1f77b4"/>
     <use xlink:href="#m09cf611fdf" x="219.802139" y="348.832879" style="fill: #1f77b4; stroke: #1f77b4"/>
     <use xlink:href="#m09cf611fdf" x="234.721925" y="337.789563" style="fill: #1f77b4; stroke: #1f77b4"/>
     <use xlink:href="#m09cf611fdf" x="249.641711" y="327.696295" style="fill: #1f77b4; stroke: #1f77b4"/>
     <use xlink:href="#m09cf611fdf" x="264.561497" y="317.342431" style="fill: #1f77b4; stroke: #1f77b4"/>
     <use xlink:href="#m09cf611fdf" x="279.481283" y="306.737175" style="fill: #1f77b4; stroke: #1f77b4"/>
     <use xlink:href="#m09cf611fdf" x="294.40107" y="296.74986" style="fill: #1f77b4; stroke: #1f77b4"/>
     <use xlink:href="#m09cf611fdf" x="309.320856" y="286.435298" style="fill: #1f77b4; stroke: #1f77b4"/>
     <use xlink:href="#m09cf611fdf" x="324.240642" y="276.571082" style="fill: #1f77b4; stroke: #1f77b4"/>
     <use xlink:href="#m09cf611fdf" x="339.160428" y="265.090364" style="fill: #1f77b4; stroke: #1f77b4"/>
     <use xlink:href="#m09cf611fdf" x="354.080214" y="255.444927" style="fill: #1f77b4; stroke: #1f77b4"/>
     <use xlink:href="#m09cf611fdf" x="369" y="244.695665" style="fill: #1f77b4; stroke: #1f77b4"/>
     <use xlink:href="#m09cf611fdf" x="383.919786" y="235.552082" style="fill: #1f77b4; stroke: #1f77b4"/>
     <use xlink:href="#m09cf611fdf" x="398.839572" y="224.641567" style="fill: #1f77b4; stroke: #1f77b4"/>
     <use xlink:href="#m09cf611fdf" x="413.759358" y="215.900475" style="fill: #1f77b4; stroke: #1f77b4"/>
     <use xlink:href="#m09cf611fdf" x="428.679144" y="205.279981" style="fill: #1f77b4; stroke: #1f77b4"/>
     <use xlink:href="#m09cf611fdf" x="443.59893" y="195.658517" style="fill: #1f77b4; stroke: #1f77b4"/>
     <use xlink:href="#m09cf611fdf" x="458.518717" y="185.605421" style="fill: #1f77b4; stroke: #1f77b4"/>
     <use xlink:href="#m09cf611fdf" x="473.438503" y="175.197697" style="fill: #1f77b4; stroke: #1f77b4"/>
     <use xlink:href="#m09cf611fdf" x="488.358289" y="165.731498" style="fill: #1f77b4; stroke: #1f77b4"/>
     <use xlink:href="#m09cf611fdf" x="503.278075" y="155.686514" style="fill: #1f77b4; stroke: #1f77b4"/>
     <use xlink:href="#m09cf611fdf" x="518.197861" y="145.093073" style="fill: #1f77b4; stroke: #1f77b4"/>
     <use xlink:href="#m09cf611fdf" x="533.117647" y="135.185997" style="fill: #1f77b4; stroke: #1f77b4"/>
     <use xlink:href="#m09cf611fdf" x="548.037433" y="127.066864" style="fill: #1f77b4; stroke: #1f77b4"/>
     <use xlink:href="#m09cf611fdf" x="562.957219" y="117.394481" style="fill: #1f77b4; stroke: #1f77b4"/>
     <use xlink:href="#m09cf611fdf" x="577.877005" y="109.040121" style="fill: #1f77b4; stroke: #1f77b4"/>
     <use xlink:href="#m09cf611fdf" x="592.796791" y="99.291243" style="fill: #1f77b4; stroke: #1f77b4"/>
     <use xlink:href="#m09cf611fdf" x="607.716578" y="90.726049" style="fill: #1f77b4; stroke: #1f77b4"/>
     <use xlink:href="#m09cf611fdf" x="622.636364" y="82.418122" style="fill: #1f77b4; stroke: #1f77b4"/>
    </g>
   </g>
   <g id="line2d_18">
    <path d="M 115.363636 420.610538 
L 130.283422 410.537287 
L 145.203209 400.464035 
L 160.122995 390.390784 
L 175.042781 380.317533 
L 189.962567 370.244282 
L 204.882353 360.171031 
L 219.802139 350.09778 
L 234.721925 340.024529 
L 249.641711 329.951278 
L 264.561497 319.878027 
L 279.481283 309.804775 
L 294.40107 299.731524 
L 309.320856 289.658273 
L 324.240642 279.585022 
L 339.160428 269.511771 
L 354.080214 259.43852 
L 369 249.365269 
L 383.919786 239.292018 
L 398.839572 229.218767 
L 413.759358 219.145516 
L 428.679144 209.072264 
L 443.59893 198.999013 
L 458.518717 188.925762 
L 473.438503 178.852511 
L 488.358289 168.77926 
L 503.278075 158.706009 
L 518.197861 148.632758 
L 533.117647 138.559507 
L 548.037433 128.486256 
L 562.957219 118.413004 
L 577.877005 108.339753 
L 592.796791 98.266502 
L 607.716578 88.193251 
L 622.636364 78.12 
" clip-path="url(#p8ee6050ff3)" style="fill: none; stroke: #ff7f0e; stroke-width: 1.5; stroke-linecap: square"/>
   </g>
   <g id="line2d_19">
    <defs>
     <path id="mfafe3318f9" d="M 0 1.5 
C 0.397805 1.5 0.77937 1.341951 1.06066 1.06066 
C 1.341951 0.77937 1.5 0.397805 1.5 0 
C 1.5 -0.397805 1.341951 -0.77937 1.06066 -1.06066 
C 0.77937 -1.341951 0.397805 -1.5 0 -1.5 
C -0.397805 -1.5 -0.77937 -1.341951 -1.06066 -1.06066 
C -1.341951 -0.77937 -1.5 -0.397805 -1.5 0 
C -1.5 0.397805 -1.341951 0.77937 -1.06066 1.06066 
C -0.77937 1.341951 -0.397805 1.5 0 1.5 
z
" style="stroke: #1f77b4"/>
    </defs>
    <g clip-path="url(#p8ee6050ff3)">
     <use xlink:href="#mfafe3318f9" x="115.363636" y="430.615351" style="fill: #1f77b4; stroke: #1f77b4"/>
     <use xlink:href="#mfafe3318f9" x="130.283422" y="410.430508" style="fill: #1f77b4; stroke: #1f77b4"/>
     <use xlink:href="#mfafe3318f9" x="145.203209" y="399.998107" style="fill: #1f77b4; stroke: #1f77b4"/>
     <use xlink:href="#mfafe3318f9" x="160.122995" y="390.141835" style="fill: #1f77b4; stroke: #1f77b4"/>
     <use xlink:href="#mfafe3318f9" x="175.042781" y="379.604216" style="fill: #1f77b4; stroke: #1f77b4"/>
     <use xlink:href="#mfafe3318f9" x="189.962567" y="368.747035" style="fill: #1f77b4; stroke: #1f77b4"/>
     <use xlink:href="#mfafe3318f9" x="204.882353" y="359.27142" style="fill: #1f77b4; stroke: #1f77b4"/>
     <use xlink:href="#mfafe3318f9" x="219.802139" y="349.490974" style="fill: #1f77b4; stroke: #1f77b4"/>
     <use xlink:href="#mfafe3318f9" x="234.721925" y="338.512437" style="fill: #1f77b4; stroke: #1f77b4"/>
     <use xlink:href="#mfafe3318f9" x="249.641711" y="328.489811" style="fill: #1f77b4; stroke: #1f77b4"/>
     <use xlink:href="#mfafe3318f9" x="264.561497" y="318.222515" style="fill: #1f77b4; stroke: #1f77b4"/>
     <use xlink:href="#mfafe3318f9" x="279.481283" y="307.674596" style="fill: #1f77b4; stroke: #1f77b4"/>
     <use xlink:href="#mfafe3318f9" x="294.40107" y="297.76786" style="fill: #1f77b4; stroke: #1f77b4"/>
     <use xlink:href="#mfafe3318f9" x="309.320856" y="287.519444" style="fill: #1f77b4; stroke: #1f77b4"/>
     <use xlink:href="#mfafe3318f9" x="324.240642" y="277.724162" style="fill: #1f77b4; stroke: #1f77b4"/>
     <use xlink:href="#mfafe3318f9" x="339.160428" y="266.34017" style="fill: #1f77b4; stroke: #1f77b4"/>
     <use xlink:href="#mfafe3318f9" x="354.080214" y="256.794436" style="fill: #1f77b4; stroke: #1f77b4"/>
     <use xlink:href="#mfafe3318f9" x="369" y="246.082367" style="fill: #1f77b4; stroke: #1f77b4"/>
     <use xlink:href="#mfafe3318f9" x="383.919786" y="237.018778" style="fill: #1f77b4; stroke: #1f77b4"/>
     <use xlink:href="#mfafe3318f9" x="398.839572" y="226.208162" style="fill: #1f77b4; stroke: #1f77b4"/>
     <use xlink:href="#mfafe3318f9" x="413.759358" y="217.524603" style="fill: #1f77b4; stroke: #1f77b4"/>
     <use xlink:href="#mfafe3318f9" x="428.679144" y="206.970229" style="fill: #1f77b4; stroke: #1f77b4"/>
     <use xlink:href="#mfafe3318f9" x="443.59893" y="197.436888" style="fill: #1f77b4; stroke: #1f77b4"/>
     <use xlink:href="#mfafe3318f9" x="458.518717" y="187.433463" style="fill: #1f77b4; stroke: #1f77b4"/>
     <use xlink:href="#mfafe3318f9" x="473.438503" y="177.121311" style="fill: #1f77b4; stroke: #1f77b4"/>
     <use xlink:href="#mfafe3318f9" x="488.358289" y="167.711177" style="fill: #1f77b4; stroke: #1f77b4"/>
     <use xlink:href="#mfafe3318f9" x="503.278075" y="157.766893" style="fill: #1f77b4; stroke: #1f77b4"/>
     <use xlink:href="#mfafe3318f9" x="518.197861" y="147.231589" style="fill: #1f77b4; stroke: #1f77b4"/>
     <use xlink:href="#mfafe3318f9" x="533.117647" y="137.665134" style="fill: #1f77b4; stroke: #1f77b4"/>
     <use xlink:href="#mfafe3318f9" x="548.037433" y="129.585824" style="fill: #1f77b4; stroke: #1f77b4"/>
     <use xlink:href="#mfafe3318f9" x="562.957219" y="119.980391" style="fill: #1f77b4; stroke: #1f77b4"/>
     <use xlink:href="#mfafe3318f9" x="577.877005" y="111.698673" style="fill: #1f77b4; stroke: #1f77b4"/>
     <use xlink:href="#mfafe3318f9" x="592.796791" y="101.975467" style="fill: #1f77b4; stroke: #1f77b4"/>
     <use xlink:href="#mfafe3318f9" x="607.716578" y="93.529297" style="fill: #1f77b4; stroke: #1f77b4"/>
     <use xlink:href="#mfafe3318f9" x="622.636364" y="85.234972" style="fill: #1f77b4; stroke: #1f77b4"/>
    </g>
   </g>
   <g id="patch_3">
    <path d="M 90 448.56 
L 90 60.48 
" style="fill: none; stroke: #000000; stroke-width: 0.8; stroke-linejoin: miter; stroke-linecap: square"/>
   </g>
   <g id="patch_4">
    <path d="M 648 448.56 
L 648 60.48 
" style="fill: none; stroke: #000000; stroke-width: 0.8; stroke-linejoin: miter; stroke-linecap: square"/>
   </g>
   <g id="patch_5">
    <path d="M 90 448.56 
L 648 448.56 
" style="fill: none; stroke: #000000; stroke-width: 0.8; stroke-linejoin: miter; stroke-linecap: square"/>
   </g>
   <g id="patch_6">
    <path d="M 90 60.48 
L 648 60.48 
" style="fill: none; stroke: #000000; stroke-width: 0.8; stroke-linejoin: miter; stroke-linecap: square"/>
   </g>
   <g id="text_18">
    <!-- Gain:  1.24 +-  0.003 V/pC -->
    <g transform="translate(117.9 99.288) scale(0.1 -0.1)">
     <defs>
      <path id="DejaVuSans-47" d="M 3809 666 
L 3809 1919 
L 2778 1919 
L 2778 2438 
L 4434 2438 
L 4434 434 
Q 4069 175 3628 42 
Q 3188 -91 2688 -91 
Q 1594 -91 976 548 
Q 359 1188 359 2328 
Q 359 3472 976 4111 
Q 1594 4750 2688 4750 
Q 3144 4750 3555 4637 
Q 3966 4525 4313 4306 
L 4313 3634 
Q 3963 3931 3569 4081 
Q 3175 4231 2741 4231 
Q 1884 4231 1454 3753 
Q 1025 3275 1025 2328 
Q 1025 1384 1454 906 
Q 1884 428 2741 428 
Q 3075 428 3337 486 
Q 3600 544 3809 666 
z
" transform="scale(0.015625)"/>
      <path id="DejaVuSans-3a" d="M 750 794 
L 1409 794 
L 1409 0 
L 750 0 
L 750 794 
z
M 750 3309 
L 1409 3309 
L 1409 2516 
L 750 2516 
L 750 3309 
z
" transform="scale(0.015625)"/>
      <path id="DejaVuSans-34" d="M 2419 4116 
L 825 1625 
L 2419 1625 
L 2419 4116 
z
M 2253 4666 
L 3047 4666 
L 3047 1625 
L 3713 1625 
L 3713 1100 
L 3047 1100 
L 3047 0 
L 2419 0 
L 2419 1100 
L 313 1100 
L 313 1709 
L 2253 4666 
z
" transform="scale(0.015625)"/>
      <path id="DejaVuSans-2b" d="M 2944 4013 
L 2944 2272 
L 4684 2272 
L 4684 1741 
L 2944 1741 
L 2944 0 
L 2419 0 
L 2419 1741 
L 678 1741 
L 678 2272 
L 2419 2272 
L 2419 4013 
L 2944 4013 
z
" transform="scale(0.015625)"/>
      <path id="DejaVuSans-2d" d="M 313 2009 
L 1997 2009 
L 1997 1497 
L 313 1497 
L 313 2009 
z
" transform="scale(0.015625)"/>
      <path id="DejaVuSans-33" d="M 2597 2516 
Q 3050 2419 3304 2112 
Q 3559 1806 3559 1356 
Q 3559 666 3084 287 
Q 2609 -91 1734 -91 
Q 1441 -91 1130 -33 
Q 819 25 488 141 
L 488 750 
Q 750 597 1062 519 
Q 1375 441 1716 441 
Q 2309 441 2620 675 
Q 2931 909 2931 1356 
Q 2931 1769 2642 2001 
Q 2353 2234 1838 2234 
L 1294 2234 
L 1294 2753 
L 1863 2753 
Q 2328 2753 2575 2939 
Q 2822 3125 2822 3475 
Q 2822 3834 2567 4026 
Q 2313 4219 1838 4219 
Q 1578 4219 1281 4162 
Q 984 4106 628 3988 
L 628 4550 
Q 988 4650 1302 4700 
Q 1616 4750 1894 4750 
Q 2613 4750 3031 4423 
Q 3450 4097 3450 3541 
Q 3450 3153 3228 2886 
Q 3006 2619 2597 2516 
z
" transform="scale(0.015625)"/>
      <path id="DejaVuSans-2f" d="M 1625 4666 
L 2156 4666 
L 531 -594 
L 0 -594 
L 1625 4666 
z
" transform="scale(0.015625)"/>
     </defs>
     <use xlink:href="#DejaVuSans-47"/>
     <use xlink:href="#DejaVuSans-61" x="77.490234"/>
     <use xlink:href="#DejaVuSans-69" x="138.769531"/>
     <use xlink:href="#DejaVuSans-6e" x="166.552734"/>
     <use xlink:href="#DejaVuSans-3a" x="229.931641"/>
     <use xlink:href="#DejaVuSans-20" x="263.623047"/>
     <use xlink:href="#DejaVuSans-20" x="295.410156"/>
     <use xlink:href="#DejaVuSans-31" x="327.197266"/>
     <use xlink:href="#DejaVuSans-2e" x="390.820312"/>
     <use xlink:href="#DejaVuSans-32" x="422.607422"/>
     <use xlink:href="#DejaVuSans-34" x="486.230469"/>
     <use xlink:href="#DejaVuSans-20" x="549.853516"/>
     <use xlink:href="#DejaVuSans-2b" x="581.640625"/>
     <use xlink:href="#DejaVuSans-2d" x="665.429688"/>
     <use xlink:href="#DejaVuSans-20" x="701.513672"/>
     <use xlink:href="#DejaVuSans-20" x="733.300781"/>
     <use xlink:href="#DejaVuSans-30" x="765.087891"/>
     <use xlink:href="#DejaVuSans-2e" x="828.710938"/>
     <use xlink:href="#DejaVuSans-30" x="860.498047"/>
     <use xlink:href="#DejaVuSans-30" x="924.121094"/>
     <use xlink:href="#DejaVuSans-33" x="987.744141"/>
     <use xlink:href="#DejaVuSans-20" x="1051.367188"/>
     <use xlink:href="#DejaVuSans-56" x="1083.154297"/>
     <use xlink:href="#DejaVuSans-2f" x="1151.5625"/>
     <use xlink:href="#DejaVuSans-70" x="1185.253906"/>
     <use xlink:href="#DejaVuSans-43" x="1248.730469"/>
    </g>
   </g>
   <g id="text_19">
    <!-- switchconfig: 00 -->
    <g transform="translate(117.9 126.4536) scale(0.1 -0.1)">
     <defs>
      <path id="DejaVuSans-77" d="M 269 3500 
L 844 3500 
L 1563 769 
L 2278 3500 
L 2956 3500 
L 3675 769 
L 4391 3500 
L 4966 3500 
L 4050 0 
L 3372 0 
L 2619 2869 
L 1863 0 
L 1184 0 
L 269 3500 
z
" transform="scale(0.015625)"/>
      <path id="DejaVuSans-63" d="M 3122 3366 
L 3122 2828 
Q 2878 2963 2633 3030 
Q 2388 3097 2138 3097 
Q 1578 3097 1268 2742 
Q 959 2388 959 1747 
Q 959 1106 1268 751 
Q 1578 397 2138 397 
Q 2388 397 2633 464 
Q 2878 531 3122 666 
L 3122 134 
Q 2881 22 2623 -34 
Q 2366 -91 2075 -91 
Q 1284 -91 818 406 
Q 353 903 353 1747 
Q 353 2603 823 3093 
Q 1294 3584 2113 3584 
Q 2378 3584 2631 3529 
Q 2884 3475 3122 3366 
z
" transform="scale(0.015625)"/>
      <path id="DejaVuSans-6f" d="M 1959 3097 
Q 1497 3097 1228 2736 
Q 959 2375 959 1747 
Q 959 1119 1226 758 
Q 1494 397 1959 397 
Q 2419 397 2687 759 
Q 2956 1122 2956 1747 
Q 2956 2369 2687 2733 
Q 2419 3097 1959 3097 
z
M 1959 3584 
Q 2709 3584 3137 3096 
Q 3566 2609 3566 1747 
Q 3566 888 3137 398 
Q 2709 -91 1959 -91 
Q 1206 -91 779 398 
Q 353 888 353 1747 
Q 353 2609 779 3096 
Q 1206 3584 1959 3584 
z
" transform="scale(0.015625)"/>
      <path id="DejaVuSans-66" d="M 2375 4863 
L 2375 4384 
L 1825 4384 
Q 1516 4384 1395 4259 
Q 1275 4134 1275 3809 
L 1275 3500 
L 2222 3500 
L 2222 3053 
L 1275 3053 
L 1275 0 
L 697 0 
L 697 3053 
L 147 3053 
L 147 3500 
L 697 3500 
L 697 3744 
Q 697 4328 969 4595 
Q 1241 4863 1831 4863 
L 2375 4863 
z
" transform="scale(0.015625)"/>
     </defs>
     <use xlink:href="#DejaVuSans-73"/>
     <use xlink:href="#DejaVuSans-77" x="52.099609"/>
     <use xlink:href="#DejaVuSans-69" x="133.886719"/>
     <use xlink:href="#DejaVuSans-74" x="161.669922"/>
     <use xlink:href="#DejaVuSans-63" x="200.878906"/>
     <use xlink:href="#DejaVuSans-68" x="255.859375"/>
     <use xlink:href="#DejaVuSans-63" x="319.238281"/>
     <use xlink:href="#DejaVuSans-6f" x="374.21875"/>
     <use xlink:href="#DejaVuSans-6e" x="435.400391"/>
     <use xlink:href="#DejaVuSans-66" x="498.779297"/>
     <use xlink:href="#DejaVuSans-69" x="533.984375"/>
     <use xlink:href="#DejaVuSans-67" x="561.767578"/>
     <use xlink:href="#DejaVuSans-3a" x="625.244141"/>
     <use xlink:href="#DejaVuSans-20" x="658.935547"/>
     <use xlink:href="#DejaVuSans-30" x="690.722656"/>
     <use xlink:href="#DejaVuSans-30" x="754.345703"/>
    </g>
   </g>
   <g id="text_20">
    <!-- stacknum: 2 -->
    <g transform="translate(117.9 153.6192) scale(0.1 -0.1)">
     <defs>
      <path id="DejaVuSans-6b" d="M 581 4863 
L 1159 4863 
L 1159 1991 
L 2875 3500 
L 3609 3500 
L 1753 1863 
L 3688 0 
L 2938 0 
L 1159 1709 
L 1159 0 
L 581 0 
L 581 4863 
z
" transform="scale(0.015625)"/>
     </defs>
     <use xlink:href="#DejaVuSans-73"/>
     <use xlink:href="#DejaVuSans-74" x="52.099609"/>
     <use xlink:href="#DejaVuSans-61" x="91.308594"/>
     <use xlink:href="#DejaVuSans-63" x="152.587891"/>
     <use xlink:href="#DejaVuSans-6b" x="207.568359"/>
     <use xlink:href="#DejaVuSans-6e" x="265.478516"/>
     <use xlink:href="#DejaVuSans-75" x="328.857422"/>
     <use xlink:href="#DejaVuSans-6d" x="392.236328"/>
     <use xlink:href="#DejaVuSans-3a" x="489.648438"/>
     <use xlink:href="#DejaVuSans-20" x="523.339844"/>
     <use xlink:href="#DejaVuSans-32" x="555.126953"/>
    </g>
   </g>
   <g id="text_21">
    <!-- Date: 04-27-2024 -->
    <g transform="translate(117.9 180.7848) scale(0.1 -0.1)">
     <defs>
      <path id="DejaVuSans-44" d="M 1259 4147 
L 1259 519 
L 2022 519 
Q 2988 519 3436 956 
Q 3884 1394 3884 2338 
Q 3884 3275 3436 3711 
Q 2988 4147 2022 4147 
L 1259 4147 
z
M 628 4666 
L 1925 4666 
Q 3281 4666 3915 4102 
Q 4550 3538 4550 2338 
Q 4550 1131 3912 565 
Q 3275 0 1925 0 
L 628 0 
L 628 4666 
z
" transform="scale(0.015625)"/>
     </defs>
     <use xlink:href="#DejaVuSans-44"/>
     <use xlink:href="#DejaVuSans-61" x="77.001953"/>
     <use xlink:href="#DejaVuSans-74" x="138.28125"/>
     <use xlink:href="#DejaVuSans-65" x="177.490234"/>
     <use xlink:href="#DejaVuSans-3a" x="239.013672"/>
     <use xlink:href="#DejaVuSans-20" x="272.705078"/>
     <use xlink:href="#DejaVuSans-30" x="304.492188"/>
     <use xlink:href="#DejaVuSans-34" x="368.115234"/>
     <use xlink:href="#DejaVuSans-2d" x="431.738281"/>
     <use xlink:href="#DejaVuSans-32" x="467.822266"/>
     <use xlink:href="#DejaVuSans-37" x="531.445312"/>
     <use xlink:href="#DejaVuSans-2d" x="595.068359"/>
     <use xlink:href="#DejaVuSans-32" x="631.152344"/>
     <use xlink:href="#DejaVuSans-30" x="694.775391"/>
     <use xlink:href="#DejaVuSans-32" x="758.398438"/>
     <use xlink:href="#DejaVuSans-34" x="822.021484"/>
    </g>
   </g>
   <g id="text_22">
    <!-- Output Voltage vs Input Voltage -->
    <g transform="translate(273.302813 54.48) scale(0.12 -0.12)">
     <defs>
      <path id="DejaVuSans-76" d="M 191 3500 
L 800 3500 
L 1894 563 
L 2988 3500 
L 3597 3500 
L 2284 0 
L 1503 0 
L 191 3500 
z
" transform="scale(0.015625)"/>
     </defs>
     <use xlink:href="#DejaVuSans-4f"/>
     <use xlink:href="#DejaVuSans-75" x="78.710938"/>
     <use xlink:href="#DejaVuSans-74" x="142.089844"/>
     <use xlink:href="#DejaVuSans-70" x="181.298828"/>
     <use xlink:href="#DejaVuSans-75" x="244.775391"/>
     <use xlink:href="#DejaVuSans-74" x="308.154297"/>
     <use xlink:href="#DejaVuSans-20" x="347.363281"/>
     <use xlink:href="#DejaVuSans-56" x="379.150391"/>
     <use xlink:href="#DejaVuSans-6f" x="439.808594"/>
     <use xlink:href="#DejaVuSans-6c" x="500.990234"/>
     <use xlink:href="#DejaVuSans-74" x="528.773438"/>
     <use xlink:href="#DejaVuSans-61" x="567.982422"/>
     <use xlink:href="#DejaVuSans-67" x="629.261719"/>
     <use xlink:href="#DejaVuSans-65" x="692.738281"/>
     <use xlink:href="#DejaVuSans-20" x="754.261719"/>
     <use xlink:href="#DejaVuSans-76" x="786.048828"/>
     <use xlink:href="#DejaVuSans-73" x="845.228516"/>
     <use xlink:href="#DejaVuSans-20" x="897.328125"/>
     <use xlink:href="#DejaVuSans-49" x="929.115234"/>
     <use xlink:href="#DejaVuSans-6e" x="958.607422"/>
     <use xlink:href="#DejaVuSans-70" x="1021.986328"/>
     <use xlink:href="#DejaVuSans-75" x="1085.462891"/>
     <use xlink:href="#DejaVuSans-74" x="1148.841797"/>
     <use xlink:href="#DejaVuSans-20" x="1188.050781"/>
     <use xlink:href="#DejaVuSans-56" x="1219.837891"/>
     <use xlink:href="#DejaVuSans-6f" x="1280.496094"/>
     <use xlink:href="#DejaVuSans-6c" x="1341.677734"/>
     <use xlink:href="#DejaVuSans-74" x="1369.460938"/>
     <use xlink:href="#DejaVuSans-61" x="1408.669922"/>
     <use xlink:href="#DejaVuSans-67" x="1469.949219"/>
     <use xlink:href="#DejaVuSans-65" x="1533.425781"/>
    </g>
   </g>
  </g>
 </g>
 <defs>
  <clipPath id="p8ee6050ff3">
   <rect x="90" y="60.48" width="558" height="388.08"/>
  </clipPath>
 </defs>
</svg>
